<svg width="70" height="70" viewBox="0 0 70 70" fill="none" xmlns="http://www.w3.org/2000/svg">
<path d="M21.3281 61.7969V8.20312C21.3281 5.18287 23.7766 2.73438 26.7969 2.73438H18.5938C15.5735 2.73438 13.125 5.18287 13.125 8.20312V61.7969C13.125 64.8171 15.5735 67.2656 18.5938 67.2656H26.7969C23.7766 67.2656 21.3281 64.8171 21.3281 61.7969Z" fill="#03B7E0" fill-opacity="0.2"/>
<path d="M56.875 19.1406V61.7969C56.875 64.8171 54.4265 67.2656 51.4062 67.2656H18.5938C15.5735 67.2656 13.125 64.8171 13.125 61.7969V8.20312C13.125 5.18287 15.5735 2.73438 18.5938 2.73438H51.4062C54.4265 2.73438 56.875 5.18287 56.875 8.20312" stroke="#03B7E0" stroke-width="5" stroke-miterlimit="10" stroke-linecap="round" stroke-linejoin="round"/>
<path d="M23.4062 34.3291C29.8035 27.9319 40.211 27.9319 46.6082 34.3291M31.1403 42.063C33.276 39.9273 36.7387 39.9273 38.8743 42.063" stroke="white" stroke-width="5" stroke-miterlimit="10" stroke-linecap="round" stroke-linejoin="round"/>
<path d="M29.5312 56.3281H40.4688" stroke="white" stroke-width="5" stroke-miterlimit="10" stroke-linecap="round" stroke-linejoin="round"/>
</svg>
