<svg width="70" height="70" viewBox="0 0 70 70" fill="none" xmlns="http://www.w3.org/2000/svg">
<path d="M24.0623 61.7971L24.062 56.7736C24.0619 53.8876 22.8799 51.1594 20.867 49.0912C15.0015 43.0647 11.886 34.3571 13.5879 24.9894C15.5233 14.3368 23.9679 5.58894 34.5624 3.35714C35.1539 3.23314 35.7491 3.12745 36.3472 3.04022C33.1622 2.56143 29.7997 2.63225 26.3593 3.35714C15.7649 5.58908 7.32017 14.3368 5.38491 24.9895C3.68303 34.3571 6.79845 43.0648 12.664 49.0914C14.6769 51.1595 15.8588 53.8878 15.859 56.7738L15.8592 61.7972C15.8594 64.8175 18.3078 67.2659 21.328 67.2659H29.5312C26.5108 67.2657 24.0624 64.8174 24.0623 61.7971Z" fill="#03B7E0" fill-opacity="0.2"/>
<path d="M54.1408 57.4218H48.672M54.1408 46.4843H65.0783L60.5284 32.8341C59.9184 31.004 59.6597 29.0899 59.456 27.1716C57.801 11.5787 42.9833 -0.145073 26.3594 3.35699C15.7649 5.58893 7.32017 14.3366 5.38491 24.9893C3.68303 34.3569 6.79845 43.0645 12.664 49.0911C14.6769 51.1592 15.8588 53.8875 15.859 56.7735L15.8592 61.797C15.8594 64.8172 18.3078 67.2655 21.328 67.2655H48.6721C51.6924 67.2655 54.1409 64.817 54.1409 61.7967V57.4217" stroke="#03B7E0" stroke-width="5" stroke-miterlimit="10" stroke-linecap="round" stroke-linejoin="round"/>
<path d="M26.7969 35.5467H21.3281M26.7969 35.5467V24.6092M26.7969 35.5467L43.2031 41.0154V19.1404L26.7969 24.6092M21.3281 35.5467C18.3079 35.5467 15.8594 33.0982 15.8594 30.0779C15.8594 27.0577 18.3079 24.6092 21.3281 24.6092H26.7969M21.3281 35.5467L26.7969 46.4842M48.6719 30.0779H43.2031" stroke="white" stroke-width="5" stroke-miterlimit="10" stroke-linecap="round" stroke-linejoin="round"/>
</svg>
