<svg width="70" height="70" viewBox="0 0 70 70" fill="none" xmlns="http://www.w3.org/2000/svg">
<g clip-path="url(#clip0_28_67)">
<path d="M11.2142 42.6656V20.2354C11.2142 12.6888 17.317 6.57104 24.8454 6.57104H16.5455C8.99569 6.57104 2.87549 12.6912 2.87549 20.2411V42.6599C2.87549 50.2095 8.99569 56.3299 16.5455 56.3299H24.8454C17.317 56.33 11.2142 50.2123 11.2142 42.6656Z" fill="#03B7E0" fill-opacity="0.2"/>
<path d="M53.5913 59.064H16.406C7.36235 59.064 0.00488281 51.7064 0.00488281 42.6629V20.2412C0.00488281 11.196 7.36372 3.83717 16.4089 3.83717H29.2587C32.8862 3.98153 32.8834 9.16205 29.2587 9.30517H16.4089C10.3788 9.30517 5.47289 14.2111 5.47289 20.2412V42.6627C5.47289 48.6913 10.3775 53.5959 16.406 53.5959H53.5913C59.6214 53.5959 64.5273 48.69 64.5273 42.6599V20.241C64.5273 18.1457 64.0039 16.18 63.0135 14.5564C62.2272 13.2673 62.6347 11.5849 63.9238 10.7986C65.2127 10.0123 66.8951 10.4197 67.6815 11.7089C69.1952 14.1904 69.9953 17.1407 69.9953 20.241V42.6599C69.9953 51.7052 62.6365 59.064 53.5913 59.064ZM50.8573 67.266C50.8573 65.756 49.6333 64.532 48.1233 64.532H21.8769C18.2494 64.6764 18.2522 69.8569 21.8769 70H48.1233C49.6333 70 50.8573 68.776 50.8573 67.266ZM45.8073 25.8679C45.8073 25.8679 56.1137 14.0752 56.129 14.0567C57.5913 12.2917 58.2788 10.0628 58.0647 7.78056C57.8506 5.49849 56.7607 3.43637 54.9956 1.97395C53.2306 0.511668 51.0015 -0.175796 48.7196 0.0384128C46.4375 0.252485 44.3753 1.34239 42.9216 3.09721L32.9034 15.0691C31.9343 16.2271 32.0874 17.9513 33.2456 18.9204C34.4035 19.8894 36.1279 19.7362 37.0968 18.5782L47.1238 6.59591C47.3838 6.28025 47.7039 6.0193 48.0655 5.82816C48.4271 5.63702 48.823 5.51948 49.2303 5.48236C50.0593 5.40512 50.867 5.65419 51.5072 6.18472C52.8088 7.21858 53.0117 9.27688 51.9376 10.5448L41.6902 22.2695C40.1419 24.0253 41.4346 26.8184 43.7478 26.8028C44.5092 26.8028 45.267 26.4863 45.8073 25.8679Z" fill="#03B7E0"/>
<path d="M54.9582 48.1141H42.5185C41.0085 48.1141 39.7845 46.89 39.7845 45.3801C39.7845 43.8701 41.0085 42.646 42.5185 42.646H54.9582C56.4682 42.646 57.6922 43.8701 57.6922 45.3801C57.6922 46.89 56.4682 48.1141 54.9582 48.1141ZM30.8879 44.8097C35.8316 41.9903 38.5542 37.9184 38.5542 33.344C38.5542 30.7407 37.6547 28.2093 36.0214 26.2162C34.1332 23.9117 31.4652 22.4872 28.5092 22.205C25.559 21.9229 22.6745 22.8147 20.3901 24.7154C17.2814 27.3019 16.2304 30.4115 15.2143 33.4189C14.6086 35.2112 13.9822 37.0646 12.8851 39.045C11.8914 40.8385 11.9306 42.9007 12.9925 44.7031C14.2183 46.7836 16.6089 48.1279 19.0832 48.1279C22.7198 48.128 27.3534 46.8255 30.8879 44.8097ZM27.9896 27.6484C29.4839 27.791 30.8344 28.5133 31.7921 29.6821C32.6387 30.7153 33.0862 31.9815 33.0862 33.3442C33.0862 36.5819 30.4177 38.7833 28.1792 40.06C25.0298 41.8561 21.3414 42.66 19.0832 42.66C18.4675 42.66 17.9128 42.2827 17.7036 41.9276C17.6189 41.7837 17.6343 41.756 17.6679 41.6952C19.0045 39.283 19.7429 37.0977 20.3944 35.1697C21.3072 32.4685 21.9668 30.5169 23.8873 28.9189C24.9032 28.0736 26.152 27.6227 27.4513 27.6227C27.63 27.6227 27.8095 27.6312 27.9896 27.6484Z" fill="white"/>
</g>
<defs>
<clipPath id="clip0_28_67">
<rect width="70" height="70" fill="white"/>
</clipPath>
</defs>
</svg>
