<svg width="70" height="70" viewBox="0 0 70 70" fill="none" xmlns="http://www.w3.org/2000/svg">
<g clip-path="url(#clip0_28_62)">
<path d="M32.5312 49.4844C32.5312 46.091 30.9301 43.0857 28.5043 40.8198C24.2404 36.8367 21.5938 31.1701 21.5938 24.875C21.5938 14.1959 29.2467 5.30563 39.3672 3.38555C38.0151 3.12894 36.6419 2.99986 35.2656 3C23.1845 3 13.3906 12.7937 13.3906 24.875C13.3906 31.1701 16.0372 36.8367 20.3012 40.8198C22.727 43.0857 24.3281 46.091 24.3281 49.4844C24.3281 54.0148 28.0008 57.6875 32.5312 57.6875H38C38.4659 57.6875 38.9222 57.6466 39.3669 57.5718C35.4878 56.9206 32.5312 53.5488 32.5312 49.4844Z" fill="#03B7E0" fill-opacity="0.2"/>
<path d="M24.3281 31.1898V18.5602L35.2656 12.2455L46.2031 18.5602V31.1898L35.2656 37.5045L24.3281 31.1898Z" stroke="white" stroke-width="5" stroke-miterlimit="10" stroke-linecap="round" stroke-linejoin="round"/>
<path d="M29.7969 67.5312H40.7344M3 5.73438L8.46875 8.46875M67.5312 5.73438L62.0625 8.46875M3 44.0156L8.46875 41.2812M67.5312 44.0156L62.0625 41.2812M55.3399 33.5875C56.4996 30.9195 57.1406 27.9733 57.1406 24.875C57.1406 12.7937 47.3469 3 35.2656 3C23.1843 3 13.3906 12.7937 13.3906 24.875C13.3906 31.1701 16.0372 36.8367 20.3012 40.8197C22.727 43.0857 24.3281 46.091 24.3281 49.4844C24.3281 54.0148 28.0008 57.6875 32.5312 57.6875H38C42.5304 57.6875 46.2031 54.0148 46.2031 49.4105C46.2031 46.091 47.8042 43.0858 50.23 40.8198C52.3954 38.7972 54.1436 36.3404 55.3399 33.5875Z" stroke="#03B7E0" stroke-width="5" stroke-miterlimit="10" stroke-linecap="round" stroke-linejoin="round"/>
</g>
<defs>
<clipPath id="clip0_28_62">
<rect width="70" height="70" fill="white"/>
</clipPath>
</defs>
</svg>
