<svg width="70" height="70" viewBox="0 0 70 70" fill="none" xmlns="http://www.w3.org/2000/svg">
<g clip-path="url(#clip0_28_52)">
<path d="M37.1488 2.77409C21.4764 2.77409 9.6329 12.0641 9.6329 28.6534C7.01116 32.0371 4.73581 35.3081 3.27361 38.1063C1.70224 41.1132 3.90448 44.7126 7.29428 44.7215C8.42267 44.7244 9.36659 45.5767 9.46265 46.701L10.0528 53.6052C10.3962 57.6226 13.7573 60.7087 17.7892 60.7087H22.1367C22.0544 59.8977 21.973 59.0867 21.8896 58.2763C19.6424 57.5872 17.9899 55.5257 17.9239 53.0567L17.2826 46.0024C17.2826 41.3056 13.0511 39.403 12.9731 39.3355C12.309 38.7611 11.4282 38.7094 12.6838 37.0697C13.4095 36.1221 14.9137 34.7737 15.765 33.675C16.8784 32.2379 17.4827 30.4715 17.4827 28.6536C17.4827 10.6979 34.8439 5.50542 39.3766 5.50555C38.6341 4.59496 37.8915 3.68447 37.1488 2.77409Z" fill="#03B7E0" fill-opacity="0.2"/>
<path d="M25.5757 70C24.0663 70 22.8428 68.7765 22.8428 67.2672V66.1741C22.8428 64.6672 21.6169 63.4412 20.11 63.4412H17.7892C12.4786 63.5362 7.6874 59.1373 7.32994 53.8377C7.32981 53.8378 6.7827 47.4359 6.7827 47.4359C1.68802 47.1806 -1.61747 41.3328 0.851777 36.8404C2.18389 34.2914 4.16984 31.298 6.91223 27.708C7.09929 7.55709 25.5397 -2.98958 44.2988 0.742235C47.8154 1.59734 46.7716 6.69775 43.1994 6.09598C27.0659 2.8114 11.8785 12.2526 12.3661 28.6536C12.3658 29.2594 12.1642 29.848 11.7932 30.327C8.99915 33.9332 6.94762 36.9764 5.69571 39.3718C5.27978 40.1676 5.59856 40.854 5.75502 41.112C5.91461 41.3756 6.38534 41.9884 7.30685 41.9884C9.86997 41.9884 11.9674 43.9142 12.1856 46.4679L12.7756 53.3721C13 55.9963 15.1554 57.9753 17.7892 57.9753H20.11C24.6307 57.9753 28.3085 61.6531 28.3085 66.1738V67.2669C28.3085 68.7765 27.085 70 25.5757 70ZM59.5994 67.2672V50.3237C59.5994 46.1815 61.1054 43.5641 62.8494 40.5338C64.5924 37.5048 66.5681 34.0718 66.5681 29.1442C66.5681 27.9453 66.5112 26.7531 66.3993 25.601C66.2534 24.0988 64.9174 22.9999 63.4149 23.1453C61.9127 23.2912 60.8133 24.6274 60.9592 26.1295C61.0554 27.1315 61.1031 28.1376 61.1023 29.1442C61.1023 32.6112 59.7165 35.0194 58.112 37.8076C56.2473 41.0482 54.1336 44.7211 54.1336 50.3237V67.2672C54.262 70.8752 59.4611 70.8997 59.5994 67.2672Z" fill="#03B7E0"/>
<path d="M27.7683 28.3248C25.3738 28.3501 24.1074 25.3494 25.843 23.6525C25.843 23.6525 31.9884 17.5538 32.0218 17.5238C33.6911 16.0163 35.8394 15.1469 38.0873 15.0693C40.3353 14.9916 42.5385 15.7106 44.3079 17.0993C46.0162 18.6245 48.6606 18.5933 50.2086 16.8562L55.7908 10.6474C56.8 9.52499 58.5279 9.43317 59.6502 10.4423C60.7726 11.4514 60.8644 13.1793 59.8553 14.3017L54.2722 20.5116C50.9068 24.2501 45.201 24.7254 41.272 21.6505C39.6902 20.2485 37.3255 20.1264 35.7208 21.5486L29.6935 27.5316C29.1821 28.0404 28.4897 28.3257 27.7683 28.3248ZM69.9842 15.6171V8.23851C69.9842 3.71787 66.3063 0.0400314 61.7857 0.0400314H54.407C52.8977 0.0400314 51.6742 1.26352 51.6742 2.77286C51.6742 4.2822 52.8977 5.50569 54.407 5.50569H61.7857C63.2926 5.50569 64.5185 6.73163 64.5185 8.23851V15.6171C64.6491 19.2328 69.8496 19.2418 69.9842 15.6171Z" fill="white"/>
</g>
<defs>
<clipPath id="clip0_28_52">
<rect width="70" height="70" fill="white"/>
</clipPath>
</defs>
</svg>
