<svg width="70" height="70" viewBox="0 0 70 70" fill="none" xmlns="http://www.w3.org/2000/svg">
<g clip-path="url(#clip0_26_43)">
<path d="M11.0742 53.5994V16.4007C11.0742 11.2931 13.7447 6.84062 17.8044 4.49508C17.5998 3.95081 17.4212 3.39792 17.2849 2.83737C17.2711 2.80333 17.2586 2.76874 17.2452 2.73456H16.4062C8.85539 2.73456 2.73438 8.85558 2.73438 16.4064V53.5938C2.73438 61.1446 8.85539 67.2656 16.4062 67.2656H23.0666C15.5374 67.2656 11.0742 61.1471 11.0742 53.5994Z" fill="#03B7E0" fill-opacity="0.2"/>
<path d="M17.2265 2.73456H16.4062C8.85539 2.73456 2.73438 8.85558 2.73438 16.4064V53.5938C2.73438 61.1446 8.85539 67.2656 16.4062 67.2656H35.4101C42.9609 67.2656 49.0819 61.1446 49.0819 53.5938V49.0821" stroke="#03B7E0" stroke-width="5" stroke-miterlimit="10" stroke-linecap="round" stroke-linejoin="round"/>
<path d="M67.2648 18.1974C67.3463 9.70594 60.5663 2.73454 51.953 2.73454H38.0078C29.5312 2.73454 22.6145 9.70594 22.6961 18.1974L22.6953 38.2813L22.9425 38.0341C25.1005 35.8762 28.3963 35.3331 31.1284 36.6935C33.1731 37.7115 35.4844 38.2825 37.9394 38.2813H51.8847C60.3134 38.2851 67.1839 31.5475 67.2648 23.1192V18.1974Z" stroke="#03B7E0" stroke-width="5" stroke-miterlimit="10" stroke-linecap="round" stroke-linejoin="round"/>
<path d="M29.5312 54.9609C29.5312 56.8486 28.0011 58.3789 26.1133 58.3789C24.2255 58.3789 22.6953 56.8486 22.6953 54.9609C22.6953 53.0733 24.2255 51.543 26.1133 51.543C28.0011 51.543 29.5312 53.0733 29.5312 54.9609Z" fill="#03B7E0" fill-opacity="0.2"/>
<path d="M44.9121 17.5002C44.9121 15.1705 46.779 13.3986 49.082 13.3986C51.385 13.3986 53.2519 15.2871 53.2519 17.6169C53.1707 21.6698 50.4948 24.9617 47.3248 27.3555C46.6299 27.8803 45.7829 28.1642 44.9121 28.1642C44.0413 28.1642 43.1943 27.8803 42.4994 27.3555C39.3293 24.9617 36.6535 21.6698 36.5723 17.6169C36.5723 15.2871 38.4392 13.3986 40.7422 13.3986C43.0452 13.3986 44.9121 15.1705 44.9121 17.5002Z" stroke="white" stroke-width="5" stroke-miterlimit="10" stroke-linecap="round" stroke-linejoin="round"/>
</g>
<defs>
<clipPath id="clip0_26_43">
<rect width="70" height="70" fill="white"/>
</clipPath>
</defs>
</svg>
