<svg width="70" height="70" viewBox="0 0 70 70" fill="none" xmlns="http://www.w3.org/2000/svg">
<g clip-path="url(#clip0_26_28)">
<path d="M11.2221 42.6749V20.2523C11.2221 14.1453 15.2202 8.97491 20.7356 7.22656C20.6412 7.01671 20.5502 6.80537 20.4627 6.59262H16.5516C9.00436 6.59262 2.88623 12.7108 2.88623 20.258V42.6693C2.88623 50.2165 9.00436 56.3346 16.5516 56.3346H24.8487C17.323 56.3346 11.2221 50.219 11.2221 42.6749Z" fill="#03B7E0" fill-opacity="0.2"/>
<path d="M50.0319 6.59262H53.5849C61.132 6.59262 67.2503 12.7109 67.2503 20.258V42.6692C67.2503 50.2164 61.132 56.3346 53.5849 56.3346H16.4123C8.86666 56.3346 2.74976 50.2177 2.74976 42.6721V20.258C2.74976 12.7109 8.86802 6.59262 16.4151 6.59262H20.2415M48.1187 67.2669H21.8812" stroke="#03B7E0" stroke-width="5" stroke-miterlimit="10" stroke-linecap="round" stroke-linejoin="round"/>
<path d="M27.4841 45.4023V31.6016L33.3602 31.6003M43.0626 45.4023V31.6444C45.8759 28.4389 48.3392 24.2796 48.3921 19.2984C42.9674 15.8515 38.2016 10.2611 34.9136 2.73309C31.9113 10.3126 27.9501 16.4188 22.0181 19.3751C22.7358 24.853 24.7115 27.735 27.4842 31.6015" stroke="white" stroke-width="5" stroke-miterlimit="10" stroke-linecap="round" stroke-linejoin="round"/>
</g>
<defs>
<clipPath id="clip0_26_28">
<rect width="70" height="70" fill="white"/>
</clipPath>
</defs>
</svg>
