<svg width="70" height="70" viewBox="0 0 70 70" fill="none" xmlns="http://www.w3.org/2000/svg">
<g clip-path="url(#clip0_26_23)">
<path d="M10.9375 61.7969V8.20312C10.9375 5.18287 13.386 2.73438 16.4062 2.73438H8.20312C5.18287 2.73438 2.73438 5.18287 2.73438 8.20312V61.7969C2.73438 64.8171 5.18287 67.2656 8.20312 67.2656H16.4062C13.386 67.2656 10.9375 64.8171 10.9375 61.7969Z" fill="#03B7E0" fill-opacity="0.2"/>
<path d="M67.2656 30.0781V61.7969C67.2656 64.8171 64.8171 67.2656 61.7969 67.2656H8.20312C5.18287 67.2656 2.73438 64.8171 2.73438 61.7969V8.20312C2.73438 5.18287 5.18287 2.73438 8.20312 2.73438H61.7969C64.8171 2.73438 67.2656 5.18287 67.2656 8.20312V19.1406H2.73438M45.3906 13.6719V19.1406M56.3281 13.6719V19.1406M34.4531 19.1406V13.6719" stroke="#03B7E0" stroke-width="5" stroke-miterlimit="10" stroke-linecap="round" stroke-linejoin="round"/>
<path d="M21.3281 48.6719L15.8594 43.2031L21.3281 37.7344M48.6719 48.6719L54.1406 43.2031L48.6719 37.7344M40.4688 29.5312L29.5312 56.875" stroke="white" stroke-width="5" stroke-miterlimit="10" stroke-linecap="round" stroke-linejoin="round"/>
</g>
<defs>
<clipPath id="clip0_26_23">
<rect width="70" height="70" fill="white"/>
</clipPath>
</defs>
</svg>
